<mxfile host="app.diagrams.net" modified="2021-09-16T01:39:14.707Z" agent="5.0 (Macintosh; Intel Mac OS X 10_15_7) AppleWebKit/537.36 (KHTML, like Gecko) Chrome/93.0.4577.63 Safari/537.36" etag="LQx3gPGDElv7u2vmVJog" version="14.9.5" type="github">
  <diagram id="uZwyIoJ1Sn9HvB_urolt" name="第 1 页">
    <mxGraphModel dx="946" dy="502" grid="1" gridSize="10" guides="1" tooltips="1" connect="1" arrows="1" fold="1" page="1" pageScale="1" pageWidth="827" pageHeight="1169" math="0" shadow="0">
      <root>
        <mxCell id="0" />
        <mxCell id="1" parent="0" />
        <mxCell id="eeTvVXVa0lbB4rhDLatM-1" value="" style="ellipse;shape=cloud;whiteSpace=wrap;html=1;fillColor=#dae8fc;strokeColor=#6c8ebf;" vertex="1" parent="1">
          <mxGeometry x="110" y="285" width="170" height="155" as="geometry" />
        </mxCell>
        <mxCell id="eeTvVXVa0lbB4rhDLatM-4" value="上海AZ" style="text;html=1;strokeColor=none;fillColor=none;align=center;verticalAlign=middle;whiteSpace=wrap;rounded=0;" vertex="1" parent="1">
          <mxGeometry x="150" y="300" width="60" height="20" as="geometry" />
        </mxCell>
        <mxCell id="eeTvVXVa0lbB4rhDLatM-42" style="edgeStyle=orthogonalEdgeStyle;rounded=0;orthogonalLoop=1;jettySize=auto;html=1;exitX=0.5;exitY=1;exitDx=0;exitDy=0;entryX=0.75;entryY=0;entryDx=0;entryDy=0;startArrow=classic;startFill=1;" edge="1" parent="1" source="eeTvVXVa0lbB4rhDLatM-6" target="eeTvVXVa0lbB4rhDLatM-4">
          <mxGeometry relative="1" as="geometry">
            <Array as="points">
              <mxPoint x="480" y="280" />
              <mxPoint x="195" y="280" />
            </Array>
          </mxGeometry>
        </mxCell>
        <mxCell id="eeTvVXVa0lbB4rhDLatM-43" style="edgeStyle=orthogonalEdgeStyle;rounded=0;orthogonalLoop=1;jettySize=auto;html=1;exitX=0.5;exitY=1;exitDx=0;exitDy=0;entryX=0.5;entryY=0;entryDx=0;entryDy=0;startArrow=classic;startFill=1;" edge="1" parent="1" source="eeTvVXVa0lbB4rhDLatM-6" target="eeTvVXVa0lbB4rhDLatM-23">
          <mxGeometry relative="1" as="geometry">
            <Array as="points">
              <mxPoint x="480" y="280" />
              <mxPoint x="369" y="280" />
            </Array>
          </mxGeometry>
        </mxCell>
        <mxCell id="eeTvVXVa0lbB4rhDLatM-44" style="edgeStyle=orthogonalEdgeStyle;rounded=0;orthogonalLoop=1;jettySize=auto;html=1;exitX=0.5;exitY=1;exitDx=0;exitDy=0;entryX=0.4;entryY=0.1;entryDx=0;entryDy=0;entryPerimeter=0;startArrow=classic;startFill=1;" edge="1" parent="1" source="eeTvVXVa0lbB4rhDLatM-6" target="eeTvVXVa0lbB4rhDLatM-28">
          <mxGeometry relative="1" as="geometry">
            <Array as="points">
              <mxPoint x="480" y="280" />
              <mxPoint x="558" y="280" />
            </Array>
          </mxGeometry>
        </mxCell>
        <mxCell id="eeTvVXVa0lbB4rhDLatM-45" style="edgeStyle=orthogonalEdgeStyle;rounded=0;orthogonalLoop=1;jettySize=auto;html=1;exitX=0.5;exitY=1;exitDx=0;exitDy=0;entryX=0.4;entryY=0.1;entryDx=0;entryDy=0;entryPerimeter=0;startArrow=classic;startFill=1;" edge="1" parent="1" source="eeTvVXVa0lbB4rhDLatM-6" target="eeTvVXVa0lbB4rhDLatM-39">
          <mxGeometry relative="1" as="geometry">
            <Array as="points">
              <mxPoint x="480" y="280" />
              <mxPoint x="738" y="280" />
            </Array>
          </mxGeometry>
        </mxCell>
        <mxCell id="eeTvVXVa0lbB4rhDLatM-6" value="web" style="rounded=1;whiteSpace=wrap;html=1;fillColor=#ffe6cc;strokeColor=#d79b00;" vertex="1" parent="1">
          <mxGeometry x="420" y="210" width="120" height="40" as="geometry" />
        </mxCell>
        <mxCell id="eeTvVXVa0lbB4rhDLatM-7" value="统一纳管" style="text;html=1;strokeColor=none;fillColor=none;align=center;verticalAlign=middle;whiteSpace=wrap;rounded=0;" vertex="1" parent="1">
          <mxGeometry x="420" y="210" width="50" height="20" as="geometry" />
        </mxCell>
        <mxCell id="eeTvVXVa0lbB4rhDLatM-8" value="苏州节点" style="text;html=1;align=center;verticalAlign=middle;resizable=0;points=[];autosize=1;strokeColor=none;" vertex="1" parent="1">
          <mxGeometry x="450" y="190" width="60" height="20" as="geometry" />
        </mxCell>
        <mxCell id="eeTvVXVa0lbB4rhDLatM-11" value="" style="ellipse;whiteSpace=wrap;html=1;fillColor=#fff2cc;strokeColor=#d6b656;" vertex="1" parent="1">
          <mxGeometry x="160" y="327.5" width="80" height="50" as="geometry" />
        </mxCell>
        <mxCell id="eeTvVXVa0lbB4rhDLatM-13" value="logfn" style="shape=parallelogram;perimeter=parallelogramPerimeter;whiteSpace=wrap;html=1;fixedSize=1;fillColor=#d5e8d4;strokeColor=#82b366;" vertex="1" parent="1">
          <mxGeometry x="177" y="345.5" width="52" height="20" as="geometry" />
        </mxCell>
        <mxCell id="eeTvVXVa0lbB4rhDLatM-14" value="Pulsar" style="text;html=1;strokeColor=none;fillColor=none;align=center;verticalAlign=middle;whiteSpace=wrap;rounded=0;" vertex="1" parent="1">
          <mxGeometry x="170" y="330" width="40" height="20" as="geometry" />
        </mxCell>
        <mxCell id="eeTvVXVa0lbB4rhDLatM-15" value="日志量：2TB/天&lt;br&gt;日均吞吐量：13亿条" style="text;html=1;strokeColor=none;fillColor=none;align=center;verticalAlign=middle;whiteSpace=wrap;rounded=0;" vertex="1" parent="1">
          <mxGeometry x="144.5" y="380.5" width="115.5" height="20" as="geometry" />
        </mxCell>
        <mxCell id="eeTvVXVa0lbB4rhDLatM-22" value="" style="ellipse;shape=cloud;whiteSpace=wrap;html=1;fillColor=#dae8fc;strokeColor=#6c8ebf;" vertex="1" parent="1">
          <mxGeometry x="290" y="288" width="177" height="152" as="geometry" />
        </mxCell>
        <mxCell id="eeTvVXVa0lbB4rhDLatM-23" value="郑州AZ" style="text;html=1;strokeColor=none;fillColor=none;align=center;verticalAlign=middle;whiteSpace=wrap;rounded=0;" vertex="1" parent="1">
          <mxGeometry x="339" y="303" width="60" height="20" as="geometry" />
        </mxCell>
        <mxCell id="eeTvVXVa0lbB4rhDLatM-24" value="" style="ellipse;whiteSpace=wrap;html=1;fillColor=#fff2cc;strokeColor=#d6b656;" vertex="1" parent="1">
          <mxGeometry x="349" y="330.5" width="80" height="50" as="geometry" />
        </mxCell>
        <mxCell id="eeTvVXVa0lbB4rhDLatM-25" value="logfn" style="shape=parallelogram;perimeter=parallelogramPerimeter;whiteSpace=wrap;html=1;fixedSize=1;fillColor=#d5e8d4;strokeColor=#82b366;" vertex="1" parent="1">
          <mxGeometry x="366" y="348.5" width="52" height="20" as="geometry" />
        </mxCell>
        <mxCell id="eeTvVXVa0lbB4rhDLatM-26" value="Pulsar" style="text;html=1;strokeColor=none;fillColor=none;align=center;verticalAlign=middle;whiteSpace=wrap;rounded=0;" vertex="1" parent="1">
          <mxGeometry x="359" y="333" width="40" height="20" as="geometry" />
        </mxCell>
        <mxCell id="eeTvVXVa0lbB4rhDLatM-27" value="日志量：1TB/天&lt;br&gt;日均吞吐量：7亿条" style="text;html=1;strokeColor=none;fillColor=none;align=center;verticalAlign=middle;whiteSpace=wrap;rounded=0;" vertex="1" parent="1">
          <mxGeometry x="339" y="380.5" width="111" height="20" as="geometry" />
        </mxCell>
        <mxCell id="eeTvVXVa0lbB4rhDLatM-28" value="" style="ellipse;shape=cloud;whiteSpace=wrap;html=1;fillColor=#dae8fc;strokeColor=#6c8ebf;" vertex="1" parent="1">
          <mxGeometry x="490" y="285" width="170" height="155" as="geometry" />
        </mxCell>
        <mxCell id="eeTvVXVa0lbB4rhDLatM-29" value="北京AZ" style="text;html=1;strokeColor=none;fillColor=none;align=center;verticalAlign=middle;whiteSpace=wrap;rounded=0;" vertex="1" parent="1">
          <mxGeometry x="530" y="300" width="60" height="20" as="geometry" />
        </mxCell>
        <mxCell id="eeTvVXVa0lbB4rhDLatM-30" value="" style="ellipse;whiteSpace=wrap;html=1;fillColor=#fff2cc;strokeColor=#d6b656;" vertex="1" parent="1">
          <mxGeometry x="540" y="327.5" width="80" height="50" as="geometry" />
        </mxCell>
        <mxCell id="eeTvVXVa0lbB4rhDLatM-31" value="logfn" style="shape=parallelogram;perimeter=parallelogramPerimeter;whiteSpace=wrap;html=1;fixedSize=1;fillColor=#d5e8d4;strokeColor=#82b366;" vertex="1" parent="1">
          <mxGeometry x="557" y="345.5" width="52" height="20" as="geometry" />
        </mxCell>
        <mxCell id="eeTvVXVa0lbB4rhDLatM-32" value="Pulsar" style="text;html=1;strokeColor=none;fillColor=none;align=center;verticalAlign=middle;whiteSpace=wrap;rounded=0;" vertex="1" parent="1">
          <mxGeometry x="550" y="330" width="40" height="20" as="geometry" />
        </mxCell>
        <mxCell id="eeTvVXVa0lbB4rhDLatM-33" value="日志量：2.5TB/天&lt;br&gt;日均吞吐量：17亿条" style="text;html=1;strokeColor=none;fillColor=none;align=center;verticalAlign=middle;whiteSpace=wrap;rounded=0;" vertex="1" parent="1">
          <mxGeometry x="530" y="380.5" width="120" height="20" as="geometry" />
        </mxCell>
        <mxCell id="eeTvVXVa0lbB4rhDLatM-39" value="。。。" style="ellipse;shape=cloud;whiteSpace=wrap;html=1;fillColor=#dae8fc;strokeColor=#6c8ebf;" vertex="1" parent="1">
          <mxGeometry x="670" y="285" width="170" height="155" as="geometry" />
        </mxCell>
        <mxCell id="eeTvVXVa0lbB4rhDLatM-41" value="日均加工量18TB&lt;br&gt;日均吞吐量58亿条" style="text;html=1;align=center;verticalAlign=middle;resizable=0;points=[];autosize=1;strokeColor=none;" vertex="1" parent="1">
          <mxGeometry x="480" y="250" width="110" height="30" as="geometry" />
        </mxCell>
        <mxCell id="eeTvVXVa0lbB4rhDLatM-55" style="edgeStyle=orthogonalEdgeStyle;rounded=0;orthogonalLoop=1;jettySize=auto;html=1;exitX=1;exitY=0.5;exitDx=0;exitDy=0;entryX=0;entryY=0.5;entryDx=0;entryDy=0;startArrow=none;startFill=0;" edge="1" parent="1" source="eeTvVXVa0lbB4rhDLatM-47" target="eeTvVXVa0lbB4rhDLatM-51">
          <mxGeometry relative="1" as="geometry" />
        </mxCell>
        <mxCell id="eeTvVXVa0lbB4rhDLatM-47" value="OP" style="rounded=1;whiteSpace=wrap;html=1;fillColor=#d5e8d4;strokeColor=#82b366;" vertex="1" parent="1">
          <mxGeometry x="287" y="500" width="80" height="40" as="geometry" />
        </mxCell>
        <mxCell id="eeTvVXVa0lbB4rhDLatM-57" style="edgeStyle=orthogonalEdgeStyle;rounded=0;orthogonalLoop=1;jettySize=auto;html=1;exitX=1;exitY=0.5;exitDx=0;exitDy=0;entryX=0;entryY=0.5;entryDx=0;entryDy=0;startArrow=none;startFill=0;" edge="1" parent="1" source="eeTvVXVa0lbB4rhDLatM-49" target="eeTvVXVa0lbB4rhDLatM-51">
          <mxGeometry relative="1" as="geometry" />
        </mxCell>
        <mxCell id="eeTvVXVa0lbB4rhDLatM-49" value="SDN" style="rounded=1;whiteSpace=wrap;html=1;fillColor=#d5e8d4;strokeColor=#82b366;" vertex="1" parent="1">
          <mxGeometry x="286" y="555" width="80" height="40" as="geometry" />
        </mxCell>
        <mxCell id="eeTvVXVa0lbB4rhDLatM-59" style="edgeStyle=orthogonalEdgeStyle;rounded=0;orthogonalLoop=1;jettySize=auto;html=1;exitX=1;exitY=0.5;exitDx=0;exitDy=0;entryX=0;entryY=0.5;entryDx=0;entryDy=0;startArrow=none;startFill=0;" edge="1" parent="1" source="eeTvVXVa0lbB4rhDLatM-50" target="eeTvVXVa0lbB4rhDLatM-51">
          <mxGeometry relative="1" as="geometry" />
        </mxCell>
        <mxCell id="eeTvVXVa0lbB4rhDLatM-50" value="等XXX" style="rounded=1;whiteSpace=wrap;html=1;fillColor=#d5e8d4;strokeColor=#82b366;" vertex="1" parent="1">
          <mxGeometry x="287" y="610" width="80" height="40" as="geometry" />
        </mxCell>
        <mxCell id="eeTvVXVa0lbB4rhDLatM-64" style="edgeStyle=orthogonalEdgeStyle;rounded=0;orthogonalLoop=1;jettySize=auto;html=1;exitX=1;exitY=0.5;exitDx=0;exitDy=0;entryX=0;entryY=0;entryDx=0;entryDy=37.5;entryPerimeter=0;startArrow=none;startFill=0;" edge="1" parent="1" source="eeTvVXVa0lbB4rhDLatM-51" target="eeTvVXVa0lbB4rhDLatM-61">
          <mxGeometry relative="1" as="geometry" />
        </mxCell>
        <mxCell id="eeTvVXVa0lbB4rhDLatM-66" style="edgeStyle=orthogonalEdgeStyle;rounded=0;orthogonalLoop=1;jettySize=auto;html=1;exitX=1;exitY=0.5;exitDx=0;exitDy=0;entryX=0;entryY=0.5;entryDx=0;entryDy=0;entryPerimeter=0;startArrow=none;startFill=0;" edge="1" parent="1" source="eeTvVXVa0lbB4rhDLatM-51" target="eeTvVXVa0lbB4rhDLatM-62">
          <mxGeometry relative="1" as="geometry" />
        </mxCell>
        <mxCell id="eeTvVXVa0lbB4rhDLatM-67" style="edgeStyle=orthogonalEdgeStyle;rounded=0;orthogonalLoop=1;jettySize=auto;html=1;exitX=1;exitY=0.5;exitDx=0;exitDy=0;entryX=0;entryY=0.5;entryDx=0;entryDy=0;entryPerimeter=0;startArrow=none;startFill=0;" edge="1" parent="1" source="eeTvVXVa0lbB4rhDLatM-51" target="eeTvVXVa0lbB4rhDLatM-63">
          <mxGeometry relative="1" as="geometry" />
        </mxCell>
        <mxCell id="eeTvVXVa0lbB4rhDLatM-51" value="logfn" style="rounded=0;whiteSpace=wrap;html=1;fillColor=#fff2cc;strokeColor=#d6b656;" vertex="1" parent="1">
          <mxGeometry x="417" y="545" width="120" height="60" as="geometry" />
        </mxCell>
        <mxCell id="eeTvVXVa0lbB4rhDLatM-61" value="OP-ES" style="shape=cylinder3;whiteSpace=wrap;html=1;boundedLbl=1;backgroundOutline=1;size=15;fillColor=#dae8fc;strokeColor=#6c8ebf;" vertex="1" parent="1">
          <mxGeometry x="580" y="490" width="80" height="60" as="geometry" />
        </mxCell>
        <mxCell id="eeTvVXVa0lbB4rhDLatM-62" value="SDN-ES" style="shape=cylinder3;whiteSpace=wrap;html=1;boundedLbl=1;backgroundOutline=1;size=15;fillColor=#dae8fc;strokeColor=#6c8ebf;" vertex="1" parent="1">
          <mxGeometry x="580" y="545" width="80" height="60" as="geometry" />
        </mxCell>
        <mxCell id="eeTvVXVa0lbB4rhDLatM-63" value="XXX-ES" style="shape=cylinder3;whiteSpace=wrap;html=1;boundedLbl=1;backgroundOutline=1;size=15;fillColor=#dae8fc;strokeColor=#6c8ebf;" vertex="1" parent="1">
          <mxGeometry x="580" y="595" width="80" height="60" as="geometry" />
        </mxCell>
      </root>
    </mxGraphModel>
  </diagram>
</mxfile>
